<?xml version="1.0" encoding="UTF-8" standalone="no"?>
<!DOCTYPE svg PUBLIC "-//W3C//DTD SVG 1.1//EN" "http://www.w3.org/Graphics/SVG/1.1/DTD/svg11.dtd">
<svg version="1.1" xmlns="http://www.w3.org/2000/svg" xmlns:xlink="http://www.w3.org/1999/xlink" preserveAspectRatio="xMidYMid meet" viewBox="228.12886606886545 7.485566121918321 381.6842968477764 276.57389190124985" width="377.68" height="272.57"><defs><path d="M502.79 262.08L503.01 262.1L503.24 262.13L503.46 262.17L503.68 262.22L503.9 262.28L504.11 262.35L504.32 262.42L504.52 262.5L504.72 262.59L504.92 262.69L505.11 262.79L505.3 262.91L505.48 263.02L505.66 263.15L505.83 263.28L506 263.42L506.16 263.56L506.32 263.71L506.47 263.87L506.61 264.03L506.75 264.2L506.88 264.37L507.01 264.55L507.12 264.73L507.24 264.92L507.34 265.11L507.44 265.31L507.53 265.51L507.61 265.71L507.68 265.92L507.75 266.13L507.81 266.35L507.86 266.57L507.9 266.79L507.93 267.02L507.95 267.24L507.97 267.47L507.97 267.71L507.97 275.41L507.97 275.65L507.95 275.88L507.93 276.1L507.9 276.33L507.86 276.55L507.81 276.77L507.75 276.99L507.68 277.2L507.61 277.41L507.53 277.61L507.44 277.81L507.34 278.01L507.24 278.2L507.12 278.39L507.01 278.57L506.88 278.75L506.75 278.92L506.61 279.09L506.47 279.25L506.32 279.41L506.16 279.56L506 279.7L505.83 279.84L505.66 279.97L505.48 280.1L505.3 280.21L505.11 280.32L504.92 280.43L504.72 280.53L504.52 280.62L504.32 280.7L504.11 280.77L503.9 280.84L503.68 280.9L503.46 280.94L503.24 280.99L503.01 281.02L502.79 281.04L502.56 281.05L502.32 281.06L333.62 281.06L333.39 281.05L333.15 281.04L332.93 281.02L332.7 280.99L332.48 280.94L332.26 280.9L332.05 280.84L331.83 280.77L331.62 280.7L331.42 280.62L331.22 280.53L331.02 280.43L330.83 280.32L330.64 280.21L330.46 280.1L330.28 279.97L330.11 279.84L329.94 279.7L329.78 279.56L329.62 279.41L329.47 279.25L329.33 279.09L329.19 278.92L329.06 278.75L328.94 278.57L328.82 278.39L328.71 278.2L328.6 278.01L328.5 277.81L328.41 277.61L328.33 277.41L328.26 277.2L328.19 276.99L328.14 276.77L328.09 276.55L328.04 276.33L328.01 276.1L327.99 275.88L327.98 275.65L327.97 275.41L327.97 267.71L327.98 267.47L327.99 267.24L328.01 267.02L328.04 266.79L328.09 266.57L328.14 266.35L328.19 266.13L328.26 265.92L328.33 265.71L328.41 265.51L328.5 265.31L328.6 265.11L328.71 264.92L328.82 264.73L328.94 264.55L329.06 264.37L329.19 264.2L329.33 264.03L329.47 263.87L329.62 263.71L329.78 263.56L329.94 263.42L330.11 263.28L330.28 263.15L330.46 263.02L330.64 262.91L330.83 262.79L331.02 262.69L331.22 262.59L331.42 262.5L331.62 262.42L331.83 262.35L332.05 262.28L332.26 262.22L332.48 262.17L332.7 262.13L332.93 262.1L333.15 262.08L333.39 262.06L333.62 262.06L502.32 262.06L502.56 262.06L502.79 262.08ZM502.79 230.34L503.01 230.36L503.24 230.39L503.46 230.44L503.68 230.48L503.9 230.54L504.11 230.61L504.32 230.68L504.52 230.76L504.72 230.85L504.92 230.95L505.11 231.05L505.3 231.17L505.48 231.28L505.66 231.41L505.83 231.54L506 231.68L506.16 231.82L506.32 231.97L506.47 232.13L506.61 232.29L506.75 232.46L506.88 232.63L507.01 232.81L507.12 232.99L507.24 233.18L507.34 233.37L507.44 233.57L507.53 233.77L507.61 233.97L507.68 234.18L507.75 234.39L507.81 234.61L507.86 234.83L507.9 235.05L507.93 235.28L507.95 235.5L507.97 235.73L507.97 235.97L507.97 241.67L507.97 241.91L507.95 242.14L507.93 242.36L507.9 242.59L507.86 242.81L507.81 243.03L507.75 243.25L507.68 243.46L507.61 243.67L507.53 243.87L507.44 244.07L507.34 244.27L507.24 244.46L507.12 244.65L507.01 244.83L506.88 245.01L506.75 245.18L506.61 245.35L506.47 245.51L506.32 245.67L506.16 245.82L506 245.96L505.83 246.1L505.66 246.23L505.48 246.36L505.3 246.47L505.11 246.59L504.92 246.69L504.72 246.79L504.52 246.88L504.32 246.96L504.11 247.03L503.9 247.1L503.68 247.16L503.46 247.21L503.24 247.25L503.01 247.28L502.79 247.3L502.56 247.32L502.32 247.32L333.62 247.32L333.39 247.32L333.15 247.3L332.93 247.28L332.7 247.25L332.48 247.21L332.26 247.16L332.05 247.1L331.83 247.03L331.62 246.96L331.42 246.88L331.22 246.79L331.02 246.69L330.83 246.59L330.64 246.47L330.46 246.36L330.28 246.23L330.11 246.1L329.94 245.96L329.78 245.82L329.62 245.67L329.47 245.51L329.33 245.35L329.19 245.18L329.06 245.01L328.94 244.83L328.82 244.65L328.71 244.46L328.6 244.27L328.5 244.07L328.41 243.87L328.33 243.67L328.26 243.46L328.19 243.25L328.14 243.03L328.09 242.81L328.04 242.59L328.01 242.36L327.99 242.14L327.98 241.91L327.97 241.67L327.97 235.97L327.98 235.73L327.99 235.5L328.01 235.28L328.04 235.05L328.09 234.83L328.14 234.61L328.19 234.39L328.26 234.18L328.33 233.97L328.41 233.77L328.5 233.57L328.6 233.37L328.71 233.18L328.82 232.99L328.94 232.81L329.06 232.63L329.19 232.46L329.33 232.29L329.47 232.13L329.62 231.97L329.78 231.82L329.94 231.68L330.11 231.54L330.28 231.41L330.46 231.28L330.64 231.17L330.83 231.05L331.02 230.95L331.22 230.85L331.42 230.76L331.62 230.68L331.83 230.61L332.05 230.54L332.26 230.48L332.48 230.44L332.7 230.39L332.93 230.36L333.15 230.34L333.39 230.33L333.62 230.32L502.32 230.32L502.56 230.33L502.79 230.34ZM417.99 8.5L418.26 8.52L418.53 8.56L418.8 8.6L419.06 8.65L419.15 8.67L419.29 8.69L419.56 8.73L419.82 8.78L420.08 8.84L420.34 8.91L420.6 8.98L420.86 9.07L421.11 9.17L421.36 9.28L421.6 9.4L421.84 9.53L422.08 9.67L422.31 9.82L422.54 9.98L422.76 10.15L422.97 10.32L423.18 10.51L423.39 10.71L423.58 10.92L423.77 11.13L605.18 227.32L605.36 227.55L605.53 227.78L605.69 228.01L605.84 228.25L605.97 228.49L606.1 228.74L606.22 228.99L606.32 229.24L606.42 229.5L606.51 229.76L606.58 230.02L606.64 230.29L606.7 230.55L606.74 230.82L606.78 231.09L606.8 231.36L606.81 231.62L606.81 231.89L606.81 232.16L606.79 232.43L606.76 232.7L606.72 232.96L606.67 233.23L606.61 233.49L606.54 233.75L606.46 234.01L606.37 234.26L606.27 234.52L606.17 234.76L606.05 235.01L605.92 235.25L605.78 235.49L605.63 235.72L605.47 235.95L605.3 236.17L605.12 236.38L604.94 236.59L604.74 236.8L604.53 236.99L604.31 237.18L604.09 237.36L603.86 237.53L603.62 237.69L603.38 237.84L603.14 237.98L602.89 238.11L602.64 238.22L602.39 238.33L602.13 238.43L601.87 238.51L601.61 238.59L601.35 238.65L601.08 238.71L600.81 238.75L600.55 238.78L600.28 238.81L600.01 238.82L599.74 238.82L599.47 238.81L599.2 238.79L598.94 238.77L598.67 238.73L598.41 238.68L598.14 238.62L597.88 238.55L597.62 238.47L597.37 238.38L597.12 238.28L596.87 238.17L596.62 238.05L596.38 237.92L596.15 237.79L595.91 237.64L595.69 237.48L595.47 237.31L595.25 237.13L595.04 236.94L594.84 236.74L594.64 236.54L594.45 236.32L417.91 25.92L241.49 236.17L241.3 236.39L241.1 236.6L240.9 236.79L240.69 236.98L240.48 237.16L240.25 237.33L240.03 237.49L239.8 237.64L239.56 237.78L239.32 237.9L239.07 238.02L238.82 238.13L238.57 238.23L238.32 238.32L238.06 238.4L237.8 238.47L237.54 238.53L237.27 238.58L237.01 238.62L236.74 238.64L236.47 238.66L236.2 238.67L235.93 238.67L235.66 238.66L235.4 238.63L235.13 238.6L234.86 238.56L234.6 238.5L234.33 238.44L234.07 238.36L233.81 238.28L233.55 238.18L233.3 238.08L233.05 237.96L232.8 237.83L232.56 237.69L232.32 237.54L232.08 237.38L231.85 237.21L231.63 237.03L231.41 236.84L231.2 236.65L231.01 236.44L230.82 236.23L230.64 236.02L230.47 235.8L230.31 235.57L230.16 235.34L230.02 235.1L229.9 234.86L229.78 234.62L229.67 234.37L229.57 234.12L229.48 233.86L229.4 233.6L229.33 233.34L229.27 233.08L229.22 232.81L229.18 232.55L229.16 232.28L229.14 232.01L229.13 231.74L229.13 231.48L229.14 231.21L229.17 230.94L229.2 230.67L229.24 230.4L229.3 230.14L229.36 229.87L229.44 229.61L229.52 229.35L229.62 229.1L229.72 228.84L229.84 228.59L229.97 228.34L230.11 228.1L230.26 227.86L230.42 227.63L230.59 227.4L230.77 227.17L412.17 10.99L412.36 10.77L412.55 10.56L412.76 10.36L412.97 10.17L413.18 10L413.4 9.83L413.63 9.67L413.86 9.52L414.1 9.38L414.34 9.25L414.59 9.13L414.83 9.02L415.09 8.92L415.34 8.84L415.6 8.76L415.86 8.69L416.12 8.63L416.39 8.58L416.65 8.54L416.92 8.51L417.19 8.49L417.46 8.49L417.73 8.49L417.99 8.5ZM502.79 202.27L503.01 202.29L503.24 202.32L503.46 202.36L503.68 202.41L503.9 202.47L504.11 202.53L504.32 202.61L504.52 202.69L504.72 202.78L504.92 202.88L505.11 202.98L505.3 203.09L505.48 203.21L505.66 203.34L505.83 203.47L506 203.61L506.16 203.75L506.32 203.9L506.47 204.06L506.61 204.22L506.75 204.39L506.88 204.56L507.01 204.74L507.12 204.92L507.24 205.11L507.34 205.3L507.44 205.49L507.53 205.7L507.61 205.9L507.68 206.11L507.75 206.32L507.81 206.54L507.86 206.76L507.9 206.98L507.93 207.2L507.95 207.43L507.97 207.66L507.97 207.89L507.97 211.6L507.97 211.83L507.95 212.06L507.93 212.29L507.9 212.52L507.86 212.74L507.81 212.96L507.75 213.17L507.68 213.38L507.61 213.59L507.53 213.8L507.44 214L507.34 214.19L507.24 214.39L507.12 214.57L507.01 214.76L506.88 214.93L506.75 215.11L506.61 215.27L506.47 215.44L506.32 215.59L506.16 215.74L506 215.89L505.83 216.03L505.66 216.16L505.48 216.28L505.3 216.4L505.11 216.51L504.92 216.62L504.72 216.71L504.52 216.8L504.32 216.88L504.11 216.96L503.9 217.02L503.68 217.08L503.46 217.13L503.24 217.17L503.01 217.2L502.79 217.23L502.56 217.24L502.32 217.25L333.62 217.25L333.39 217.24L333.15 217.23L332.93 217.2L332.7 217.17L332.48 217.13L332.26 217.08L332.05 217.02L331.83 216.96L331.62 216.88L331.42 216.8L331.22 216.71L331.02 216.62L330.83 216.51L330.64 216.4L330.46 216.28L330.28 216.16L330.11 216.03L329.94 215.89L329.78 215.74L329.62 215.59L329.47 215.44L329.33 215.27L329.19 215.11L329.06 214.93L328.94 214.76L328.82 214.57L328.71 214.39L328.6 214.19L328.5 214L328.41 213.8L328.33 213.59L328.26 213.38L328.19 213.17L328.14 212.96L328.09 212.74L328.04 212.52L328.01 212.29L327.99 212.06L327.98 211.83L327.97 211.6L327.97 207.89L327.98 207.66L327.99 207.43L328.01 207.2L328.04 206.98L328.09 206.76L328.14 206.54L328.19 206.32L328.26 206.11L328.33 205.9L328.41 205.7L328.5 205.49L328.6 205.3L328.71 205.11L328.82 204.92L328.94 204.74L329.06 204.56L329.19 204.39L329.33 204.22L329.47 204.06L329.62 203.9L329.78 203.75L329.94 203.61L330.11 203.47L330.28 203.34L330.46 203.21L330.64 203.09L330.83 202.98L331.02 202.88L331.22 202.78L331.42 202.69L331.62 202.61L331.83 202.53L332.05 202.47L332.26 202.41L332.48 202.36L332.7 202.32L332.93 202.29L333.15 202.27L333.39 202.25L333.62 202.25L502.32 202.25L502.56 202.25L502.79 202.27Z" id="cdC7WTIs"></path></defs><g><g><use xlink:href="#cdC7WTIs" opacity="1" fill="#636dc9" fill-opacity="1"></use></g></g></svg>